<svg width="29" height="39" viewBox="0 0 29 39" fill="none" xmlns="http://www.w3.org/2000/svg">
<path d="M27.8882 29.024L23.9155 29.3705C23.0289 29.4488 22.4342 28.4651 22.9392 27.7385C23.7247 26.6095 24.2297 25.4693 24.4542 24.4744C25.0714 21.6798 24.7572 19.3882 23.5115 17.6667C23.4554 17.5885 23.3881 17.4991 23.3207 17.4208C24.2858 15.9229 24.7684 14.1344 24.6786 12.234C24.6337 11.2839 24.3083 9.03701 22.4117 7.39379C22.1199 7.13668 21.974 6.74544 22.0526 6.36537L23.1412 1.26802C23.2871 0.574961 22.7259 -0.0622073 22.0189 0.00486316L2.27892 1.72634C1.8188 1.77105 1.43725 2.1064 1.33624 2.55354L0.0232357 8.70166C-0.122654 9.39472 0.438461 10.0319 1.14547 9.96482L4.18671 9.69654C4.89371 9.62947 5.46605 10.2778 5.30894 10.9709L0.550684 33.283C0.404794 33.976 0.965909 34.6132 1.67291 34.5573L5.21916 34.2443C5.92616 34.1772 6.4985 34.8144 6.34139 35.5075L5.87005 37.732C5.72416 38.425 6.28528 39.0622 6.99228 38.9951L26.7211 37.2737C27.1812 37.2289 27.5628 36.8936 27.6638 36.4465L28.9768 30.2983C29.1227 29.6053 28.5615 28.9681 27.8545 29.0352L27.8882 29.024Z" fill="#1100cf"/>
<path d="M12.7605 16.9625L13.7369 16.8731C14.4214 16.8172 16.0711 16.6607 16.4863 14.8833C16.8903 13.1395 15.2407 13.2401 14.5561 13.296L13.5237 13.3854L12.7605 16.9513V16.9625ZM10.8303 25.9835L12.3341 25.8493C14.197 25.6928 14.8703 24.3402 15.0499 23.5578C15.4202 21.8922 14.0062 21.7133 13.0411 21.8027L11.7056 21.9257L10.8415 25.9835H10.8303ZM8.68685 8.91405L14.601 8.39985C19.1348 7.95271 21.6935 9.32765 21.8394 12.357C22.0189 16.0123 19.2134 17.9127 18.2034 17.8009C21.2109 18.1251 22.4903 20.1819 21.6823 23.8484C21.1885 26.0729 18.0687 30.276 12.3565 30.7566L3.86126 31.4944L8.68685 8.90287V8.91405Z" fill="white"/>
<path d="M25.7223 32.0645L9.7193 33.4618L9.19185 35.9546L25.1948 34.5685L25.7223 32.0645Z" fill="#F9AF06"/>
<path d="M19.853 3.03421L3.85004 4.43151L3.32259 6.93547L19.3256 5.53817L19.853 3.03421Z" fill="#E62D2D"/>
</svg>
